<?xml version="1.0" standalone="no"?>
<!DOCTYPE svg PUBLIC "-//W3C//DTD SVG 20010904//EN"
 "http://www.w3.org/TR/2001/REC-SVG-20010904/DTD/svg10.dtd">
<svg version="1.0" xmlns="http://www.w3.org/2000/svg"
 width="40.000000pt" height="40.000000pt" viewBox="0 0 40.000000 40.000000"
 preserveAspectRatio="xMidYMid meet">

<g transform="translate(0.000000,40.000000) scale(0.100000,-0.100000)"
fill="#000000" stroke="none">
<path d="M207 393 c9 -3 10 -10 3 -24 -9 -16 -7 -19 12 -18 13 0 18 3 12 5 -7
3 -10 14 -7 24 4 15 0 20 -13 19 -11 0 -13 -3 -7 -6z"/>
<path d="M88 353 c-28 -29 -48 -73 -48 -101 0 -9 11 7 23 37 12 30 32 60 44
68 22 14 22 14 16 -20 -6 -42 11 -98 37 -122 15 -14 20 -31 20 -72 0 -57 -1
-58 -33 -42 -39 20 -76 61 -88 96 -6 19 -13 32 -16 29 -10 -10 19 -74 45 -99
15 -15 42 -31 59 -38 27 -9 32 -16 35 -47 3 -32 7 -37 31 -40 22 -3 37 5 63
32 34 35 47 59 19 36 -13 -11 -15 -8 -15 14 0 14 -4 26 -10 26 -5 0 -10 -20
-10 -44 0 -31 -5 -46 -16 -50 -40 -16 -44 -9 -44 80 0 47 -5 94 -10 105 -9 15
-7 21 6 26 20 7 33 -12 35 -52 l2 -30 4 28 c9 60 72 16 74 -53 1 -26 3 -30 8
-15 4 11 15 37 26 57 21 42 16 56 -17 41 -23 -10 -73 2 -101 25 -9 8 -26 10
-40 7 -36 -9 -62 40 -52 101 8 53 -8 58 -47 17z m250 -178 c-10 -23 -13 -24
-21 -9 -6 11 -5 19 4 25 24 15 29 10 17 -16z"/>
<path d="M307 353 c9 -3 10 -10 3 -24 -9 -16 -7 -19 12 -18 13 0 17 3 11 6 -9
3 -10 10 -3 24 9 16 7 19 -12 18 -13 0 -17 -3 -11 -6z"/>
<path d="M239 301 c12 -8 12 -12 2 -25 -12 -14 -10 -16 10 -16 17 0 20 3 10 9
-9 6 -10 11 -2 15 19 12 12 26 -11 26 -18 0 -20 -2 -9 -9z"/>
</g>
</svg>
